<svg width="24" height="24" viewBox="0 0 24 24" fill="none" xmlns="http://www.w3.org/2000/svg">
<g clip-path="url(#clip0_117_53)">
<path d="M1.32216 24C1.13945 23.9997 0.958804 23.9613 0.79171 23.8874C0.624617 23.8135 0.474732 23.7056 0.351585 23.5706C0.226212 23.4367 0.130543 23.2778 0.0708541 23.1044C0.0111647 22.9309 -0.0111975 22.7468 0.0052336 22.5641L0.32788 19.0154L15.2328 4.11162L19.8908 8.76954L4.9898 23.672L1.442 23.9947C1.40216 23.9984 1.36217 24.0002 1.32216 24ZM20.8206 7.83822L16.1639 3.1803L18.9571 0.386342C19.0794 0.263866 19.2247 0.166704 19.3845 0.100413C19.5444 0.0341212 19.7158 0 19.8888 0C20.0619 0 20.2333 0.0341212 20.3931 0.100413C20.553 0.166704 20.6983 0.263866 20.8206 0.386342L23.6138 3.1803C23.7362 3.30264 23.8333 3.44792 23.8996 3.60784C23.9659 3.76776 24 3.93917 24 4.11228C24 4.28539 23.9659 4.45681 23.8996 4.61672C23.8333 4.77664 23.7362 4.92192 23.6138 5.04426L20.8219 7.8369L20.8206 7.83822Z" fill="#F2994A"/>
</g>
<defs>
<clipPath id="clip0_117_53">
<rect width="24" height="24" fill="white"/>
</clipPath>
</defs>
</svg>
