<svg width="24" height="24" viewBox="0 0 24 24" fill="none" xmlns="http://www.w3.org/2000/svg">
<path d="M2 5.05556C2 3.36802 3.36801 2 5.05556 2H18.9444C20.632 2 22 3.36802 22 5.05556V12.1281C21.4877 11.7808 20.9282 11.4977 20.3333 11.2901V5.05556C20.3333 4.28849 19.7115 3.66667 18.9444 3.66667H5.05556C4.2885 3.66667 3.66667 4.28849 3.66667 5.05556V18.9444C3.66667 19.7116 4.2885 20.3333 5.05556 20.3333H11.0796C11.2711 20.9261 11.5372 21.4853 11.8666 22H5.05556C3.36801 22 2 20.632 2 18.9444V5.05556Z" fill="#F2994A"/>
<path d="M24 18C24 14.6863 21.3137 12 18 12C14.6863 12 12 14.6863 12 18C12 21.3137 14.6863 24 18 24C21.3137 24 24 21.3137 24 18ZM18.5461 18.5455L18.5467 21.2765C18.5467 21.5779 18.3025 21.822 18.0012 21.822C17.7 21.822 17.4557 21.5779 17.4557 21.2765L17.4552 18.5455H14.723C14.4218 18.5455 14.1776 18.3013 14.1776 18C14.1776 17.6988 14.4218 17.4545 14.723 17.4545H17.4551L17.4545 14.7265C17.4545 14.4252 17.6988 14.1811 18 14.1811C18.3012 14.1811 18.5455 14.4252 18.5455 14.7265L18.546 17.4545H21.276C21.5773 17.4545 21.8215 17.6988 21.8215 18C21.8215 18.3013 21.5773 18.5455 21.276 18.5455H18.5461Z" fill="#F2994A"/>
</svg>
