<svg width="20" height="20" viewBox="0 0 20 20" fill="none" xmlns="http://www.w3.org/2000/svg">
<path d="M8.31716 15.8002C9.97761 15.7998 11.5902 15.244 12.8982 14.2212L17.0106 18.3333L18.3333 17.0106L14.221 12.8985C15.2444 11.5904 15.8006 9.97754 15.801 8.31674C15.801 4.19057 12.4436 0.833313 8.31716 0.833313C4.19076 0.833313 0.833328 4.19057 0.833328 8.31674C0.833328 12.4429 4.19076 15.8002 8.31716 15.8002ZM8.31716 2.70417C11.4127 2.70417 13.93 5.22141 13.93 8.31674C13.93 11.4121 11.4127 13.9293 8.31716 13.9293C5.22166 13.9293 2.70429 11.4121 2.70429 8.31674C2.70429 5.22141 5.22166 2.70417 8.31716 2.70417Z" fill="#BEBEBE"/>
</svg>
